<svg width="104" height="22" viewBox="0 0 104 22" fill="none" xmlns="http://www.w3.org/2000/svg">
<path d="M103.385 0.0621338C103.795 0.456287 104 0.964537 104 1.58689C104 2.10551 103.881 2.6345 103.644 3.17387L97.8504 14.4695V21.8443H95.164V15.1541L88.6908 0.0621338H91.4419L97.6239 14.0961L103.256 3.17387C103.493 2.65525 103.612 2.11588 103.612 1.55577C103.612 0.995655 103.45 0.560013 103.126 0.248839L103.385 0.0621338Z" fill="white"/>
<path d="M81.1096 21.8443H78.4232V0.373307H72.8239V0.0621338H86.7413V0.373307H81.1096V21.8443Z" fill="white"/>
<path d="M69.7204 1.36918C67.7568 0.643107 65.9012 0.280072 64.1534 0.280072C62.4272 0.280072 61.0786 0.632735 60.1076 1.33806C59.1366 2.04339 58.6511 3.0184 58.6511 4.26309C58.6511 5.77747 59.4711 6.94956 61.111 7.77935C61.8446 8.13202 62.643 8.46394 63.5061 8.77511C64.3907 9.06554 65.2754 9.39746 66.1601 9.77087C67.0448 10.1443 67.8539 10.5695 68.5875 11.0467C69.3212 11.5238 69.9146 12.1876 70.3677 13.0382C70.8208 13.868 71.0474 14.9363 71.0474 16.2433C71.0474 17.5295 70.6698 18.6289 69.9146 19.5417C69.1593 20.4545 68.2423 21.0768 67.1634 21.4088C66.1061 21.7199 64.8654 21.8755 63.4413 21.8755C60.7873 21.8755 58.5217 21.2428 56.6444 19.9774L56.8063 19.7284C57.5183 20.2678 58.4354 20.7138 59.5574 21.0665C60.701 21.3984 61.8662 21.5643 63.0529 21.5643C64.8007 21.5643 66.2896 21.1806 67.5195 20.413C68.771 19.6247 69.3967 18.4734 69.3967 16.959C69.3967 15.2994 68.5768 14.0028 66.9369 13.0693C66.2032 12.6544 65.3941 12.2706 64.5094 11.918C63.6463 11.5653 62.7724 11.2023 61.8878 10.8289C61.0031 10.4347 60.1939 9.99906 59.4603 9.52193C57.8204 8.48468 57.0005 7.01179 57.0005 5.10326C57.0005 3.58888 57.5291 2.36493 58.5864 1.43141C59.6437 0.477148 61.2296 1.52588e-05 63.3442 1.52588e-05C65.4804 1.52588e-05 67.6489 0.352678 69.8498 1.058L69.7204 1.36918Z" fill="white"/>
<path d="M47.4734 0.373307V0.0621338H53.2346V0.373307H51.6486V21.5331H53.2346V21.8443H47.4734V21.5331H48.9622V0.373307H47.4734Z" fill="white"/>
<path d="M28.667 0.311073C31.17 0.145114 33.3817 0.0621338 35.3021 0.0621338C40.6317 0.0621338 43.2965 1.77359 43.2965 5.1965C43.2965 6.64864 42.9297 7.9452 42.196 9.08617C41.4624 10.2271 40.2001 10.9843 38.4092 11.3577L44.8824 21.8443H41.8724L35.5286 11.5444H31.3534V21.8443H28.667V0.311073ZM35.3021 0.373307C34.0506 0.373307 32.7343 0.445915 31.3534 0.591129V11.2333H36.1436C39.186 11.1088 40.7072 9.11729 40.7072 5.25873C40.7072 3.68212 40.2541 2.47892 39.3478 1.64912C38.4416 0.798578 37.093 0.373307 35.3021 0.373307Z" fill="white"/>
<path d="M24.8248 0.0621338C25.2348 0.456287 25.4398 0.964537 25.4398 1.58689C25.4398 2.10551 25.3211 2.6345 25.0838 3.17387L17.4454 21.8443L17.0893 21.9999L12.817 8.9617L7.54131 21.8443L7.18528 21.9999L0 0.0621338H2.75112L8.54466 18.4836L12.6552 8.46382L9.90404 0.0621338H12.6552L18.4487 18.4836L24.6954 3.17387C24.9327 2.65525 25.0514 2.11588 25.0514 1.55577C25.0514 0.995655 24.8896 0.560013 24.5659 0.248839L24.8248 0.0621338Z" fill="white"/>
</svg>
